<?xml version="1.0" encoding="UTF-8"?> <svg xmlns="http://www.w3.org/2000/svg" id="Layer_8" viewBox="0 0 1920 1080"><defs><style>.cls-1{fill:#f55;}</style></defs><path class="cls-1" d="M817.08,255.9c-150.87,0-261.16,115.79-261.16,278.9s110.29,278.9,261.16,278.9,260.28-115.79,260.28-278.9-109.4-278.9-260.28-278.9Zm0,428.92c-68.82,0-121.76-56.38-121.76-150.02s52.94-150.02,121.76-150.02,120.88,56.38,120.88,150.02-52.06,150.02-120.88,150.02Z"></path><rect class="cls-1" x="1169.15" y="255.9" width="137.64" height="557.8"></rect><path class="cls-1" d="M1723.25,255.9c-64.41,0-120,25.54-157.05,72.53v-72.53h-131.47V813.69h137.65v-271.75c0-101.14,47.64-148.14,113.82-148.14,60.87,0,96.16,40.87,96.16,129.75v290.14h137.64V499.04c0-167.55-84.69-243.14-196.75-243.14Z"></path><rect class="cls-1" x="1169.15" y="254.62" width="137.64" height="557.8"></rect><path class="cls-1" d="M0,281.05h0v103.84c0,132.05,10.84,185.83,80.4,290.69,16.04,24.18,48.82,57.36,80.4,76.27V460.5C160.8,361.39,88.81,281.05,0,281.05Z"></path><path class="cls-1" d="M1237.97,176.98c51.17,0,85.59-38.66,85.59-91.54,0-48.82-34.43-85.44-85.59-85.44s-85.59,38.65-85.59,88.49,34.41,88.49,85.59,88.49Z"></path><path class="cls-1" d="M462.46,281.06v233.25c0,56.65-20.17,110.97-56.07,151.03-4.54,5.08-8.98,10.49-13.28,16.18-4.31,5.7-8.47,11.67-12.5,17.88-25.35,36.76-43.56,78.88-53.64,123.61-2.46,9.33-3.91,17-5.03,27.56-1.81,14.84-2.97,31.15-2.97,46.3v18.41c0,92.45-64.8,164.72-144.69,164.72h-.04v-174.03c0-18.68,1.41-37.18,3.96-55.4,2.04-12.56,4.66-24.96,7.85-37.15,3.15-11.19,6.7-22.68,10.42-33.48,3.59-9.93,7.57-19.68,11.95-29.21,13.89-30.35,31.69-58.55,53.04-83.67,1.96-2.31,3.94-4.59,5.95-6.84,32.23-35.95,50.33-84.72,50.33-135.58v-82.1c0-47.06,18.03-89.42,46.82-118.91,14.92-15.46,25.62-22.37,41.96-29.48,.03,0,.06-.03,.09-.04,4.92-2.14,9.68-4.19,14.62-5.99,.07-.03,.14-.05,.21-.07,12.99-4.42,26.76-6.86,41.02-6.99Z"></path></svg> 